<?xml version="1.0" encoding="utf-8"?>
<!-- Generator: Adobe Illustrator 15.0.0, SVG Export Plug-In . SVG Version: 6.00 Build 0)  -->
<!DOCTYPE svg PUBLIC "-//W3C//DTD SVG 1.1//EN" "http://www.w3.org/Graphics/SVG/1.1/DTD/svg11.dtd">
<svg version="1.1" id="Layer_1" xmlns="http://www.w3.org/2000/svg" xmlns:xlink="http://www.w3.org/1999/xlink" x="0px" y="0px"
	 width="18.75px" height="8px" viewBox="0 0 18.75 8" enable-background="new 0 0 18.75 8" xml:space="preserve">
<path fill="#9DA2A6" d="M11.201,1.17c-0.188-0.186-0.441-0.291-0.705-0.291S9.979,0.984,9.791,1.17l-3.59,3.54l-3.54-3.54
	C2.474,0.984,2.22,0.879,1.956,0.879S1.438,0.984,1.251,1.17C1.157,1.263,1.083,1.374,1.032,1.496
	C0.981,1.618,0.955,1.748,0.955,1.88c0,0.132,0.026,0.263,0.077,0.384C1.083,2.387,1.157,2.497,1.251,2.59l4.24,4.24
	c0.093,0.094,0.204,0.168,0.326,0.219C5.938,7.1,6.069,7.126,6.201,7.126c0.132,0,0.263-0.026,0.385-0.077
	C6.707,6.998,6.818,6.924,6.91,6.83l4.291-4.24c0.094-0.093,0.168-0.204,0.219-0.326c0.051-0.122,0.076-0.252,0.076-0.384
	c0-0.132-0.025-0.263-0.076-0.385C11.369,1.374,11.295,1.263,11.201,1.17z"/>
</svg>
