<svg width="25" height="25" viewBox="0 0 25 25" fill="none" xmlns="http://www.w3.org/2000/svg">
<path d="M12.5 10.0156C12.1044 10.0156 11.7178 10.1329 11.3889 10.3527C11.06 10.5724 10.8036 10.8848 10.6522 11.2503C10.5009 11.6157 10.4613 12.0178 10.5384 12.4058C10.6156 12.7938 10.8061 13.1501 11.0858 13.4298C11.3655 13.7095 11.7219 13.9 12.1098 13.9772C12.4978 14.0544 12.8999 14.0148 13.2654 13.8634C13.6308 13.712 13.9432 13.4557 14.1629 13.1268C14.3827 12.7979 14.5 12.4112 14.5 12.0156C14.5 11.4852 14.2893 10.9765 13.9142 10.6014C13.5391 10.2263 13.0304 10.0156 12.5 10.0156ZM5.5 10.0156C5.10444 10.0156 4.71776 10.1329 4.38886 10.3527C4.05996 10.5724 3.80362 10.8848 3.65224 11.2503C3.50087 11.6157 3.46126 12.0178 3.53843 12.4058C3.6156 12.7938 3.80608 13.1501 4.08579 13.4298C4.36549 13.7095 4.72186 13.9 5.10982 13.9772C5.49778 14.0544 5.89992 14.0148 6.26537 13.8634C6.63082 13.712 6.94318 13.4557 7.16294 13.1268C7.3827 12.7979 7.5 12.4112 7.5 12.0156C7.5 11.4852 7.28929 10.9765 6.91421 10.6014C6.53914 10.2263 6.03043 10.0156 5.5 10.0156ZM19.5 10.0156C19.1044 10.0156 18.7178 10.1329 18.3889 10.3527C18.06 10.5724 17.8036 10.8848 17.6522 11.2503C17.5009 11.6157 17.4613 12.0178 17.5384 12.4058C17.6156 12.7938 17.8061 13.1501 18.0858 13.4298C18.3655 13.7095 18.7219 13.9 19.1098 13.9772C19.4978 14.0544 19.8999 14.0148 20.2654 13.8634C20.6308 13.712 20.9432 13.4557 21.1629 13.1268C21.3827 12.7979 21.5 12.4112 21.5 12.0156C21.5 11.4852 21.2893 10.9765 20.9142 10.6014C20.5391 10.2263 20.0304 10.0156 19.5 10.0156Z" fill="#404040"/>
</svg>
